<?xml version="1.0" encoding="utf-8"?>
<!-- Generator: Adobe Illustrator 19.2.1, SVG Export Plug-In . SVG Version: 6.00 Build 0)  -->
<svg version="1.1" id="layer" xmlns="http://www.w3.org/2000/svg" xmlns:xlink="http://www.w3.org/1999/xlink" x="0px" y="0px"
	 viewBox="0 0 652 652" style="enable-background:new 0 0 652 652;" xml:space="preserve">
<style type="text/css">
	.st0{fill:#0078BF;}
	.st1{fill:#00843D;}
	.st2{fill:#4B4B45;}
</style>
<g>
	<path class="st0" d="M98.5,306.2v16.1h14.2c3.8,0,6.8-3,6.8-6.8v-30.3c0-3.8-3-6.8-6.8-6.8H82.5c-3.8,0-6.8,3-6.8,6.8v14.2h16.1
		C95.5,299.4,98.5,302.6,98.5,306.2z M47,306.2v16.1H32.8c-3.8,0-6.8-3-6.8-6.8v-30.3c0-3.8,3-6.8,6.8-6.8h30.3c3.8,0,6.8,3,6.8,6.8
		v14.2H53.8C50.3,299.4,47,302.6,47,306.2z"/>
	<path class="st1" d="M47,344.1V328H32.8c-3.8,0-6.8,3-6.8,6.8v30.3c0,3.8,3,6.8,6.8,6.8h30.3c3.8,0,6.8-3,6.8-6.8v-14.2H53.8
		C50.3,350.9,47,347.9,47,344.1z M98.5,344.1V328h14.2c3.8,0,6.8,3,6.8,6.8v30.3c0,3.8-3,6.8-6.8,6.8H82.5c-3.8,0-6.8-3-6.8-6.8
		v-14.2h16.1C95.5,350.9,98.5,347.9,98.5,344.1z"/>
	<path class="st2" d="M282.9,349L282.9,349v-0.3V349z M181.2,334.8c-1.6,10.6-8.7,16.9-19.4,16.9c-14.7,0-21.3-13.6-21.3-26.5
		c0-13.1,6.5-26.5,21.3-26.5c10.6,0,17.7,6,19.4,16.9l-9.8,1.4c-1.1-5.5-3.3-10.1-9.5-10.1c-8.7,0-10.6,11.7-10.6,18.3
		c0,6.5,1.9,18.3,10.6,18.3c6.3,0,8.7-4.9,9.5-10.1L181.2,334.8z M187.2,299.4h9.8v51.5h-9.8V299.4z M225.9,328.6
		c0-4.1-1.6-8.2-6.3-8.2c-4.4,0-6.3,4.4-6.3,8.2H225.9z M212.8,334.8c-0.3,4.4,2.2,9.8,7.4,9.8c3,0,5.2-1.9,6.3-5.5l9.3,1.1
		c-2.2,7.4-9.3,11.5-16.1,11.5c-10.9,0-16.4-9.5-16.4-19.4c0-9.8,5.5-19.4,16.4-19.4c9.3,0,16.4,4.4,16.1,21.5h-22.9V334.8z"/>
	<path class="st2" d="M295.5,328.6c0-4.1-1.6-8.2-6.3-8.2c-4.4,0-6.3,4.4-6.3,8.2H295.5z M282.4,334.8c-0.3,4.4,2.2,9.8,7.4,9.8
		c3,0,5.2-1.9,6.3-5.5l9.3,1.1c-2.2,7.4-9.3,11.5-16.1,11.5c-10.9,0-16.4-9.5-16.4-19.4c0-9.8,5.5-19.4,16.4-19.4
		c9.3,0,16.4,4.4,16.1,21.5h-22.9V334.8z M259.7,350.9h-10.4l-11.5-37.1H248l6.5,27.3h0.3l6.3-27.3h9.8L259.7,350.9z M311.5,299.4
		h9.8v51.5h-9.8V299.4z M348.9,334c-4.1,0.8-12,1.1-12,6.5c0,2.2,1.1,4.1,3.3,4.1c4.1,0,6.8-2.5,8.7-4.9
		C348.9,339.7,348.9,334,348.9,334z M349.5,347.4c-3.5,2.5-6,4.1-10.6,4.1c-6.5,0-11.7-4.4-11.7-10.9c0-10.4,13.6-12.5,21.5-13.4
		c0.5-5.2-1.1-7.1-4.6-7.1c-3,0-5.5,1.4-6,4.6l-9.3-1.4c2.2-7.9,7.4-10.4,15.3-10.4c10.1,0,14.5,4.6,14.5,11.7V343
		c0,2.7,0,5.2,1.4,7.6h-9.3C349.7,349.3,349.5,347.4,349.5,347.4z M376.5,317.6c3-2.5,6.8-4.6,11.2-4.6c4.1,0,9.8,2.5,9.8,11.5v26.2
		h-9.8v-22.4c0-3,0.3-7.6-4.1-7.6c-2.7,0-5.2,2.2-6.8,4.1v25.9h-9.8v-36.8h9.8v3.8H376.5L376.5,317.6z M498.1,334.8
		c-1.6,10.6-8.7,16.9-19.4,16.9c-14.7,0-21.3-13.6-21.3-26.5c0-13.1,6.5-26.5,21.3-26.5c10.6,0,17.7,6,19.4,16.9l-9.8,1.4
		c-1.1-5.5-3.3-10.1-9.5-10.1c-8.7,0-10.6,11.7-10.6,18.3c0,6.5,1.9,18.3,10.6,18.3c6.3,0,8.7-4.9,9.5-10.1L498.1,334.8z
		 M504.1,299.4h9.8v51.5h-9.8V299.4z M531.9,350.9h-9.8v-37.1h9.8V350.9z M531.9,308.4h-9.8v-9h9.8V308.4z M549.6,317.6
		c3-2.5,6.8-4.6,10.9-4.6c4.1,0,9.8,2.5,9.8,11.5v26.2h-9.8v-22.4c0-3,0.3-7.6-4.1-7.6c-2.7,0-5.2,2.2-6.8,4.1v25.9h-9.8v-36.8h9.8
		V317.6L549.6,317.6z M588.1,350.9h-9.8v-37.1h9.8V350.9z M588.1,308.4h-9.8v-9h9.8V308.4z M626,338.9c-1.6,7.6-7.1,12.8-15.5,12.8
		c-10.9,0-16.4-9.5-16.4-19.4c0-9.8,5.5-19.4,16.4-19.4c8.2,0,13.9,4.9,15.5,12.8l-9,1.1c-0.5-3-1.6-6.8-6.5-6.8
		c-5.2,0-6.3,7.4-6.3,12c0,4.6,0.8,12,6.3,12c4.9,0,5.7-3.3,6.5-6.8L626,338.9z M426.6,339.2c-1.6,2.2-3.5,4.4-6.3,4.4
		c-6,0-6.8-7.1-6.8-11.5c0-4.1,1.1-10.9,6.5-10.9c2.7,0,4.9,1.9,6.5,4.1L426.6,339.2L426.6,339.2z M436.5,344.4v-45h-9.8v18
		c-2.7-2.5-5.2-4.4-9-4.4c-5.5,0-13.6,4.6-13.6,18.3c0,15.5,6.8,20.2,14.5,20.2c4.1,0,6.3-1.4,9.3-4.1c0,0,0.3,1.9,1.1,3.3h9
		C436.7,348.7,436.5,346.6,436.5,344.4L436.5,344.4z"/>
</g>
</svg>
