<svg version="1.1" id="Layer_1" xmlns:x="ns_extend;" xmlns:i="ns_ai;" xmlns:graph="ns_graphs;" xmlns="http://www.w3.org/2000/svg" xmlns:xlink="http://www.w3.org/1999/xlink" x="0px" y="0px" viewBox="0 0 309.9 65" style="enable-background:new 0 0 309.9 65;" xml:space="preserve">
 <style type="text/css">
  .st0{fill:#FFFFFF;}
	.st1{fill:#FCCB06;}
	.st2{fill:#8F9ACA;}
	.st3{fill:#18468B;}
	.st4{fill:#4C67A9;}
	.st5{fill:#004276;}
 </style>
 <metadata>
  <sfw xmlns="ns_sfw;">
   <slices>
   </slices>
   <sliceSourceBounds bottomLeftOrigin="true" height="65" width="309.9" x="-27.4" y="0.7">
   </sliceSourceBounds>
  </sfw>
 </metadata>
 <g>
  <path class="st0" d="M66.6,57.7C64.4,33.9,51.8,13.1,33.3,0h0C14.8,13.1,2.2,33.9,0,57.7h0C21.7,67.7,46,67.2,66.6,57.7L66.6,57.7">
  </path>
  <path class="st1" d="M57.6,52.5c-1.4-15.1-12-33.6-24.3-42.3C21.4,18.7,10.3,37.6,8.9,52.6C22.3,58.8,45.1,58.2,57.6,52.5">
  </path>
  <path class="st2" d="M9.2,52.4c2.8-16.8,11.6-31.5,24.2-41.9l0-8.9C15.6,14.2,3.5,34.1,1.5,56.8L9.2,52.4">
  </path>
  <path class="st3" d="M9.2,52.4c15.9,6,33.1,5.7,48.3,0l7.7,4.4c-19.7,9-42.9,9.6-63.7,0L9.2,52.4">
  </path>
  <path class="st4" d="M57.5,52.4c-2.8-16.8-11.6-31.5-24.2-41.9V1.7C51,14.2,63.1,34.1,65.1,56.8L57.5,52.4">
  </path>
  <path class="st3" d="M21.3,49.8h24V53h-24L21.3,49.8 M33.8,22.1H35c0,0,0.2-1.5-0.9-1.9c-0.2-1.3-0.2-3.6-0.3-4.7
		c0-0.5-0.3-1-0.5-1c-0.2,0-0.4,0.5-0.5,1c-0.2,1.1-0.1,3.4-0.3,4.7c-1.2,0.4-0.9,1.9-0.9,1.9H33.8 M31.7,35.5h-4
		c0.2-0.4,0.3-0.9,0.8-1.2c0.3-0.2,1.1-0.1,1.1-0.1c0.2-1.9-0.3-2.1,1.7-2v-5.2c-2.1-0.8-1.6-3.3,0.2-3.6c0.1-0.1,0.1-0.6,0.2-0.6
		H35c0.1,0,0.1,0.5,0.2,0.6c1.7,0.3,2.2,2.8,0.2,3.6v5.2c2.1-0.1,1.6,0.1,1.7,2c0,0,0.7-0.1,1.1,0.1c0.5,0.2,0.6,0.7,0.8,1.2H31.7
		 M26.8,36.3h3.6c-1.2,2.1-2.6,7.4-2.6,10.5c-0.6,0.2-1,1.2-0.8,1.8h-4.1c0-1-0.3-1.7-1.2-2C23.1,40,24.4,38.1,26.8,36.3 M39.7,36.3
		h-3.6c1.2,2.1,2.6,7.4,2.6,10.5c0.6,0.2,1,1.2,0.8,1.8h4.1c0-1,0.3-1.7,1.2-2C43.5,40,42.1,38.1,39.7,36.3 M33.9,48.6h2.3
		c0-1.3,0.7-1.8,1.4-1.9c0.2-2.2-0.2-6-2.4-10.4h-3.9c-2.2,4.4-2.6,8.2-2.4,10.4c0.7,0.1,1.4,0.6,1.4,1.9H33.9">
  </path>
  <g>
   <path class="st5" d="M129.5,51.6h1.9v8.6h-2.1v-5.4l-2.3,2.7h-0.3l-2.3-2.7v5.4h-2.1v-8.6h1.9l2.8,3.2L129.5,51.6
			C129.5,51.6,129.5,51.6,129.5,51.6z M150.2,60.2h-6.3v-8.6h6.2v1.6H146V55h3.9v1.6H146v2.1h4.2C150.2,58.6,150.2,60.2,150.2,60.2z
			 M164.5,58.6h1.4c2.2,0,2.8-1.5,2.8-2.7c0-1.5-0.8-2.7-2.8-2.7h-1.4C164.5,53.2,164.5,58.6,164.5,58.6z M166.1,51.6
			c3.1,0,4.7,2,4.7,4.3c0,2.5-1.6,4.3-5,4.3h-3.6v-8.6L166.1,51.6L166.1,51.6z M185.3,60.2h-2.1v-8.6h2.1L185.3,60.2L185.3,60.2z
			 M205.8,59.5c-1.2,0.6-2.1,0.9-3.4,0.9c-3.3,0-5-2.2-5-4.4c0-2.3,1.9-4.4,5.2-4.4c1.2,0,2.3,0.3,3.1,0.8v1.9
			c-0.9-0.5-1.9-0.9-3-0.9c-1.8,0-3.1,1.1-3.1,2.6c0,1.5,1.3,2.6,3.1,2.6c1.1,0,1.9-0.4,3.1-0.9L205.8,59.5L205.8,59.5z M220.3,60.2
			h-2.1v-8.6h2.1L220.3,60.2L220.3,60.2z M241.5,60.2h-1.8l-4.7-5.5v5.5h-2.1v-8.6h2l4.6,5.3v-5.3h2.1L241.5,60.2L241.5,60.2z
			 M260.4,60.2H254v-8.6h6.2v1.6h-4.1V55h3.9v1.6h-3.9v2.1h4.2C260.4,58.6,260.4,60.2,260.4,60.2z M80.7,11.4c0-2-0.5-2.2-1.7-2.4
			C77.3,8.9,77,8.9,77,8.3c0-0.3,0.4-0.5,1.1-0.5c0.9,0,2.5,0.2,4.4,0.2c2.3,0,3.1-0.2,3.6-0.2c0.7,0,0.9,0.2,0.9,0.6
			c0,0.7-0.6,0.4-1.9,0.7c-1.4,0.4-1.4,0.6-1.4,8.4v15.9c0,8.1-4,13.1-8.1,13.1c-2,0-2.7-1.3-2.7-2.5c0-1.2,0.7-2,1.8-2
			c2.1,0,1.4,2.7,2.6,2.7c1.8,0,3.3-3,3.3-7.8C80.7,36.8,80.7,11.4,80.7,11.4z M96.6,36.8c3,0,6.6-3.7,6.6-14.3
			c0-10.6-3.5-14.3-6.6-14.3c-3,0-6.6,3.7-6.6,14.3C90.1,33.1,93.6,36.8,96.6,36.8z M96.6,7.2c5.4,0,10.3,6.6,10.3,15.4
			c0,8.8-4.9,15.4-10.3,15.4c-5.4,0-10.3-6.6-10.3-15.4C86.3,13.8,91.2,7.2,96.6,7.2z">
   </path>
   <path class="st5" d="M123,11c0-1.2-0.2-1.8-1-1.9c-1.1-0.2-1.7-0.2-1.7-0.7c0-0.5,0.4-0.6,1.1-0.6c0.9,0,1.6,0.2,3.4,0.2
			c2.3,0,2.6-0.2,3.5-0.2c0.6,0,0.7,0.2,0.7,0.4c0,0.6-0.8,0.8-1.8,0.9c-0.6,0.1-1,0.5-1,0.9v24.2c0,1.1,0.3,1.7,0.8,2
			c0.9,0.4,1.8,0.2,1.8,0.8c0,0.3-0.1,0.5-0.8,0.5c-0.7,0-1.6-0.2-3.4-0.2c-2.1,0-2.3,0.2-3,0.2c-1,0-1.3-0.1-1.3-0.7
			c0-0.3,0.2-0.4,1.4-0.7c1-0.2,1.3-0.7,1.3-1.9V22.7c0-0.3-0.1-0.5-0.4-0.5H113c-0.3,0-0.4,0.2-0.4,0.6v11.3c0,1.4,0.6,1.8,1.3,2
			c0.7,0.1,1.4,0.2,1.4,0.7c0,0.4-0.1,0.6-0.9,0.6c-0.7,0-0.7-0.2-3.4-0.2c-2.6,0-2.8,0.2-3.6,0.2c-0.5,0-0.7-0.2-0.7-0.7
			c0-0.2,0.2-0.5,0.6-0.6c2-0.4,2.2-0.8,2.2-2.1V10.7c0-1.2-0.2-1.5-0.7-1.6c-1.6-0.4-2-0.1-2-0.8c0-0.3,0.1-0.6,0.9-0.6
			c0.7,0,2.1,0.2,3.3,0.2c1.4,0,2.4-0.2,3.3-0.2c0.7,0,0.9,0.2,0.9,0.6c0,0.7-0.5,0.6-1.4,0.8c-0.7,0.1-1.2,0.4-1.2,1.3v10.1
			c0,0.3,0.1,0.5,0.4,0.5h9.6c0.3,0,0.4-0.1,0.4-0.6L123,11L123,11z M149.7,36.9c0,1.3,0,1.4-0.5,1.4c-0.6,0-0.5-0.5-7.6-13.6
			c-6.3-11.7-6.3-12.4-6.7-12.4c-0.2,0-0.3,0.1-0.3,1v16.5c0,4.6,0.3,6.1,1.5,6.4c1.3,0.3,2.4,0,2.4,0.8c0,0.4-0.3,0.5-0.7,0.5
			c-0.6,0-0.7-0.2-3.3-0.2c-2.3,0-3,0.2-3.7,0.2c-0.4,0-0.5-0.2-0.5-0.5c0-0.6,1.5-0.7,2-0.8c0.9-0.3,1.1-1.3,1.1-2.7V11.6
			c0-1.6-0.2-2.4-1.1-2.6c-1.2-0.2-1.6-0.1-1.6-0.8c0-0.5,0.7-0.6,1-0.6c0.9,0,2.5,0.1,3.2,0.1l0.9,0c0.7,0,0.9,0.9,1.4,2.1
			l6.7,12.8c3.9,7.4,4.1,7.6,4.3,7.6c0.2,0,0.2-0.2,0.2-0.7V12.5c0-2.6-0.6-3.3-1.6-3.5c-0.9-0.1-1.6-0.3-1.6-0.8
			c0-0.3,0.3-0.6,0.6-0.6c0.5,0,1.2,0.2,3.3,0.2c1,0,2-0.2,2.9-0.2c0.6,0,0.7,0.1,0.7,0.6c0,0.6-0.5,0.6-1.6,0.8
			c-1.1,0.2-1.4,0.9-1.4,2.5V36.9z M159.3,38c-2.6,0-4.5-0.6-5.5-1.2c-0.7-0.4-0.8-0.9-0.8-5.1c0-3.3,0.1-3.4,0.7-3.4
			c0.6,0,0.6,0.2,0.7,0.7c1.2,5.8,3.2,7.8,6,7.8c3.1,0,5.2-2.8,5.2-6.3c0-8.2-12.4-7.7-12.4-16.4c0-3.8,3.6-7,8-7
			c2,0,4.5,0.8,5.1,1.4c0.3,0.3,0.3,0.6,0.3,4.4c0,2.4,0,2.5-0.5,2.5c-0.7,0-0.5-0.7-0.8-1.7c-1.2-4.1-2.9-5.5-4.9-5.5
			c-2.3,0-4.4,2.1-4.4,4.5c0,8.3,12.4,7,12.4,16.4C168.3,34.5,164.6,38,159.3,38L159.3,38z M194,11c0-1.2-0.2-1.8-1-1.9
			c-1.1-0.2-1.7-0.2-1.7-0.7c0-0.5,0.4-0.6,1.1-0.6c0.9,0,1.6,0.2,3.4,0.2c2.3,0,2.6-0.2,3.5-0.2c0.6,0,0.7,0.2,0.7,0.4
			c0,0.6-0.7,0.8-1.8,0.9c-0.6,0.1-1,0.5-1,0.9v24.2c0,1.1,0.3,1.7,0.8,2c0.9,0.4,1.8,0.2,1.8,0.8c0,0.3-0.1,0.5-0.7,0.5
			c-0.7,0-1.6-0.2-3.4-0.2c-2.1,0-2.3,0.2-3,0.2c-1,0-1.3-0.1-1.3-0.7c0-0.3,0.2-0.4,1.4-0.7c1-0.2,1.3-0.7,1.3-1.9V22.7
			c0-0.3-0.1-0.5-0.4-0.5H184c-0.3,0-0.4,0.2-0.4,0.6v11.3c0,1.4,0.6,1.8,1.3,2c0.7,0.1,1.4,0.2,1.4,0.7c0,0.4-0.1,0.6-0.9,0.6
			c-0.7,0-0.7-0.2-3.4-0.2c-2.6,0-2.8,0.2-3.6,0.2c-0.5,0-0.7-0.2-0.7-0.7c0-0.2,0.2-0.5,0.6-0.6c2-0.4,2.2-0.8,2.2-2.1V10.7
			c0-1.2-0.2-1.5-0.7-1.6c-1.6-0.4-2-0.1-2-0.8c0-0.3,0.1-0.6,0.9-0.6c0.7,0,2.1,0.2,3.3,0.2c1.4,0,2.4-0.2,3.3-0.2
			c0.7,0,0.9,0.2,0.9,0.6c0,0.7-0.5,0.6-1.4,0.8c-0.7,0.1-1.2,0.4-1.2,1.3v10.1c0,0.3,0.1,0.5,0.4,0.5h9.6c0.3,0,0.4-0.1,0.4-0.6
			L194,11L194,11L194,11z M210.2,36.8c3,0,6.6-3.7,6.6-14.3c0-10.6-3.5-14.3-6.6-14.3c-3,0-6.6,3.7-6.6,14.3
			C203.6,33.1,207.2,36.8,210.2,36.8z M210.2,7.2c5.4,0,10.3,6.6,10.3,15.4c0,8.8-4.9,15.4-10.3,15.4c-5.4,0-10.3-6.6-10.3-15.4
			C199.9,13.8,204.8,7.2,210.2,7.2z">
   </path>
   <path class="st5" d="M226.3,21.1c0,0.7,0.7,1.8,2.7,1.8c4.1,0,6.3-2.8,6.3-6.9c0-4.3-2.2-7.1-6.4-7.1c-1.9,0-2.6,0.5-2.6,1.5V21.1
			z M223.2,11.3c0-1.6-0.4-2.2-1.3-2.2c-1.5-0.2-1.7-0.2-1.7-0.7c0-0.3,0.1-0.6,0.8-0.6c1.4,0,2.6,0.2,3.8,0.2
			c1.7,0,3.7-0.2,5.3-0.2c4.8,0,8.7,2.9,8.7,8.5c0,4.6-3.7,7.8-8.3,7.8c-2.4,0-2.9-0.5-3.7-0.5c-0.4,0-0.5,0.3-0.5,0.7v9.5
			c0,1.5,0.4,2.3,1.4,2.4c1.6,0.2,2.4,0.2,2.4,0.7c0,0.3-0.3,0.6-0.8,0.6c-0.7,0-1.5-0.2-4.2-0.2c-2.7,0-3.3,0.2-3.8,0.2
			c-0.7,0-1-0.1-1-0.5c0-0.6,0.3-0.7,1.9-0.8c0.8-0.1,1.1-0.7,1.1-1.9L223.2,11.3L223.2,11.3z M245,33.4c0,2.2,0.2,2.5,1.7,2.8
			c0.8,0.2,1,0.3,1,0.7c0,0.4-0.3,0.6-1.3,0.6c-0.6,0-1.6-0.2-2.9-0.2c-1.7,0-2.5,0.2-3.4,0.2c-0.6,0-0.8-0.2-0.8-0.6
			c0-0.4,0.1-0.6,0.9-0.7c1.5-0.3,1.7-0.5,1.7-2.6V11.3c0-1.7-0.2-2.1-0.9-2.2c-1.1-0.3-1.7-0.2-1.7-0.8c0-0.3,0.3-0.5,0.8-0.5
			c0.4,0,0.8,0.2,3.6,0.2c1.7,0,2.7-0.2,3.3-0.2c0.6,0,0.7,0.2,0.7,0.6c0,0.7-0.4,0.4-1.6,0.8c-0.7,0.2-1,0.7-1,1.5v8.8
			c0,1.4,0,1.5,0.1,1.5c0,0,0.4-0.4,0.9-1c1.6-1.9,5.1-6.2,6.6-8.5c0.4-0.6,0.6-1,0.6-1.3c0-0.6-0.4-0.9-1.3-1.1
			c-0.8-0.1-1.2-0.2-1.2-0.7c0-0.3,0.3-0.5,0.9-0.5c0.8,0,2.2,0.2,3.3,0.2c1.3,0,2.5-0.2,3.1-0.2c0.7,0,1,0.2,1,0.5
			c0,0.6-0.4,0.4-1.4,0.6c-1.1,0.2-2.8,1.8-5.3,4.9c-3.4,4.3-3.5,4.6-3.5,4.9c0,0.5,0.5,0.9,6.4,12.7c2.2,4.4,2.4,4.4,3.2,4.7
			c0.6,0.2,1.3,0.1,1.3,0.7c0,0.3-0.2,0.6-0.9,0.6c-0.8,0-1.2-0.2-3.2-0.2c-2.6,0-3,0.2-3.5,0.2c-0.9,0-1.2-0.2-1.2-0.7
			c0-0.3,0.1-0.5,1.3-0.7c1.3-0.2,1.5-0.5,1.5-1c0-0.6-0.1-0.8-2.2-4.8c-4.2-8.4-4.5-8.8-4.8-8.8c-0.4,0-1.6,1.5-1.6,2L245,33.4
			L245,33.4L245,33.4z M267.6,33.7c0,1.3,0.2,2.2,1.5,2.4c0.9,0.2,1.9,0.2,1.9,0.9c0,0.2-0.2,0.4-1,0.4c-0.4,0-0.7-0.2-3.9-0.2
			c-3.2,0-3.4,0.2-3.9,0.2c-0.6,0-0.9,0-0.9-0.5c0-0.6,0.8-0.6,1.7-0.8c1.4-0.3,1.5-0.6,1.5-2.2V10.7c0-1.3-0.4-1.5-1.3-1.7
			c-1.5-0.2-2,0-2-0.8c0-0.3,0.2-0.6,1-0.6c1.2,0,2.5,0.2,3.8,0.2c1.4,0,3-0.2,4-0.2c0.7,0,1,0.2,1,0.6c0,0.6-0.6,0.5-2.2,0.7
			c-1,0.1-1.3,0.8-1.3,1.7C267.6,10.7,267.6,33.7,267.6,33.7z M291.7,36.9c0,1.3,0,1.4-0.5,1.4c-0.6,0-0.5-0.5-7.6-13.6
			c-6.3-11.7-6.3-12.4-6.7-12.4c-0.2,0-0.3,0.1-0.3,1v16.5c0,4.6,0.3,6.1,1.5,6.4c1.3,0.3,2.4,0,2.4,0.8c0,0.4-0.3,0.5-0.7,0.5
			c-0.6,0-0.7-0.2-3.3-0.2c-2.3,0-3,0.2-3.7,0.2c-0.4,0-0.5-0.2-0.5-0.5c0-0.6,1.5-0.7,2-0.8c0.9-0.3,1.1-1.3,1.1-2.7V11.6
			c0-1.6-0.2-2.4-1.1-2.6c-1.2-0.2-1.6-0.1-1.6-0.8c0-0.5,0.7-0.6,1-0.6c0.9,0,2.5,0.1,3.2,0.1l0.9,0c0.7,0,0.9,0.9,1.5,2.1
			l6.7,12.8c3.9,7.4,4.1,7.6,4.3,7.6c0.2,0,0.2-0.2,0.2-0.7V12.5c0-2.6-0.6-3.3-1.6-3.5c-0.9-0.1-1.6-0.3-1.6-0.8
			c0-0.3,0.3-0.6,0.6-0.6c0.5,0,1.2,0.2,3.3,0.2c1,0,2-0.2,2.9-0.2c0.6,0,0.7,0.1,0.7,0.6c0,0.6-0.5,0.6-1.6,0.8
			c-1.1,0.2-1.4,0.9-1.4,2.5L291.7,36.9L291.7,36.9z M300.9,38c-2.6,0-4.5-0.6-5.5-1.2c-0.7-0.4-0.8-0.9-0.8-5.1
			c0-3.3,0.1-3.4,0.7-3.4c0.6,0,0.6,0.2,0.7,0.7c1.2,5.8,3.2,7.8,6,7.8c3.1,0,5.2-2.8,5.2-6.3c0-8.2-12.4-7.7-12.4-16.4
			c0-3.8,3.6-7,8-7c2,0,4.5,0.8,5.1,1.4c0.3,0.3,0.3,0.6,0.3,4.4c0,2.4,0,2.5-0.5,2.5c-0.7,0-0.5-0.7-0.8-1.7
			c-1.2-4.1-2.9-5.5-4.9-5.5c-2.3,0-4.4,2.1-4.4,4.5c0,8.3,12.4,7,12.4,16.4C309.9,34.5,306.1,38,300.9,38z">
   </path>
  </g>
 </g>
</svg>