<?xml version="1.0" encoding="utf-8"?>
<!-- Generator: Adobe Illustrator 19.0.0, SVG Export Plug-In . SVG Version: 6.00 Build 0)  -->
<svg version="1.1" id="layer" xmlns="http://www.w3.org/2000/svg" xmlns:xlink="http://www.w3.org/1999/xlink" x="0px" y="0px"
	 viewBox="-153 -46 652 652" style="enable-background:new -153 -46 652 652;" xml:space="preserve">
<style type="text/css">
	.st0{fill:#E50715;}
</style>
<g>
	<path class="st0" d="M170.6,278.5c-0.8,0-1.9,0-3-0.1v15.5h-8.7V250c3.7-0.2,7.7-0.3,12.1-0.3c11.1,0,17.2,5,17.2,13.6
		C188.3,271.8,181.6,278.5,170.6,278.5 M170.7,256.6c-1.1,0-2.1,0-3.1,0.1v14.6c0.9,0.1,1.7,0.2,2.6,0.2c5.4-0.1,9.1-2.9,9.1-7.7
		C179.2,259.4,176.6,256.6,170.7,256.6"/>
	<path class="st0" d="M207.8,269c-6.2-1.2-9.3,2.7-9.3,11.6v13.2h-8.6v-32.3h8.1c0,1.6-0.2,4.2-0.6,6.5h0.1
		c1.6-4.1,4.8-7.7,10.6-7.2L207.8,269z"/>
	<path class="st0" d="M236.7,279.1h-20.7c-0.1,6,3,9,9.2,9c3.3,0,6.8-0.7,9.7-2l0.8,6.4c-3.6,1.4-7.8,2.1-11.9,2.1
		c-10.6,0-16.5-5.1-16.5-16.5c0-9.9,5.6-17.2,15.6-17.2c9.7,0,14,6.4,14,14.4C237,276.4,236.9,277.7,236.7,279.1 M222.7,267
		c-3.6,0-6,2.5-6.5,6.4h12.3C228.6,269.4,226.3,267,222.7,267"/>
	<path class="st0" d="M246.3,294.5c-2.4,0-4.8-0.3-7-0.6l0.2-6.8c2.1,0.5,4.6,1,7.2,1c3.3,0,5.4-1.3,5.4-3.4
		c0-5.7-13.5-2.5-13.5-13.5c0-5.7,4.8-10.3,14.2-10.3c1.9,0,4.1,0.3,6.1,0.6l-0.3,6.6c-1.9-0.5-4.1-0.8-6.2-0.8c-3.4,0-5,1.3-5,3.3
		c0,5.3,13.7,2.9,13.7,13.4C261.2,290.2,255.5,294.5,246.3,294.5"/>
	<path class="st0" d="M275.5,294.5c-4.8,0-8.6-0.5-12.4-1.6v-44.5l8.6-2.7v14.6c0,2-0.2,4.6-0.5,6.3h0.1c1.7-3.5,5.4-5.7,10.1-5.7
		c8,0,12.3,5.6,12.3,15.2C293.6,287,287,294.5,275.5,294.5 M278.9,267.8c-4.5,0-7.2,5-7.2,10.4v9.1c1.2,0.4,2.6,0.6,4.5,0.6
		c4.8,0,8.4-3,8.4-11C284.6,270.9,282.8,267.8,278.9,267.8"/>
	<path class="st0" d="M311,296.9c-4,10.1-7.4,13.1-15.1,13.1c-1.5,0-3.3-0.2-4.7-0.5l0.5-7.2c1.5,0.5,3,0.7,4.6,0.7
		c2.8,0,4.7-1.2,6.4-6.1l1.1-3.1l-12.3-32.3h9.5l4.5,12.4c1,2.8,1.9,6,2.6,8.9h0.1c0.7-2.9,2.1-7.2,3.2-10.3l4-11h6.8l-0.1,6.3
		L311,296.9z"/>
	<path class="st0" d="M339.2,294.5c-7.4,0-9.7-2.6-9.7-10.1V268h-5.8v-6.4h5.7v-9.9l8.6-2.2v12.2h8.1v6.4H338v14.2
		c0,4.2,1,5.3,4,5.3c1.4,0,2.9-0.2,4.2-0.5v6.7C344,294.2,341.5,294.5,339.2,294.5"/>
	<path class="st0" d="M375.6,279.1H355c-0.1,6,3,9,9.2,9c3.3,0,6.8-0.7,9.7-2l0.8,6.4c-3.6,1.4-7.8,2.1-11.9,2.1
		c-10.6,0-16.5-5.1-16.5-16.5c0-9.9,5.6-17.2,15.6-17.2c9.7,0,14,6.4,14,14.4C375.9,276.4,375.8,277.7,375.6,279.1 M361.6,267
		c-3.6,0-6,2.5-6.5,6.4h12.3C367.5,269.4,365.3,267,361.6,267"/>
	<path class="st0" d="M395.5,269c-6.2-1.2-9.3,2.7-9.3,11.6v13.2h-8.6v-32.3h8.1c0,1.6-0.2,4.2-0.6,6.5h0.1
		c1.6-4.1,4.8-7.7,10.6-7.2L395.5,269z"/>
	<path class="st0" d="M402.2,258.3c-2.8,0-5.1-2.2-5.1-4.9c0-2.6,2.3-4.8,5.1-4.8c2.8,0,5.2,2.1,5.2,4.8
		C407.4,256.1,405,258.3,402.2,258.3 M397.9,261.6h8.6v32.3h-8.6V261.6z"/>
	<path class="st0" d="M429.1,293.9c0-1.9,0.1-3.8,0.3-5.5l-0.1-0.1c-1.6,3.6-5.7,6.2-10.7,6.2c-6,0-9.5-3.3-9.5-8.5
		c0-7.7,7.9-11.8,19.2-11.8v-1.8c0-3.4-1.7-5.1-6.5-5.1c-3,0-7,1-9.9,2.5l-0.7-7c3.4-1.2,7.6-2,11.9-2c10.7,0,13.7,4.2,13.7,11.3
		v13.5c0,2.6,0.1,5.7,0.2,8.3H429.1z M428.4,279.6c-9.1,0-11.1,2.5-11.1,5.1c0,2.1,1.5,3.4,4,3.4c4.2,0,7.1-3.9,7.1-7.8V279.6z"/>
	<path class="st0" d="M460.5,293.9v-20.7c0-3.4-0.9-5.4-4.1-5.4c-4.4,0-7.8,4.8-7.8,10.5v15.6H440v-32.3h8.1c0,1.5-0.1,4-0.5,5.7
		l0.1,0.1c2-3.8,5.9-6.5,11.3-6.5c7.5,0,9.9,4.7,9.9,10.3v22.7H460.5z"/>
	<polygon class="st0" points="-131,278.4 -103.9,278.4 -103.9,303.6 -108.7,303.6 -108.7,283 -131,283 	"/>
	<polygon class="st0" points="-130.6,264.3 -130.6,265.5 -104,265.5 -104,240.2 -105.2,240.2 -105.2,264.3 	"/>
	<path class="st0" d="M-58.9,293.9l-13.3-22.2c-2-3.3-3.6-6.6-4.9-9.4c0.3,3.8,0.4,10.7,0.4,15.9v15.7h-8.5V250h11.3l12.6,20.9
		c2.1,3.4,3.9,7,5.6,10.3c-0.3-4.4-0.5-12.2-0.5-17.6V250h8.4v43.9H-58.9z"/>
	<path class="st0" d="M-15.8,279.1h-20.7c-0.1,6,3,9,9.2,9c3.3,0,6.8-0.7,9.7-2l0.8,6.4c-3.6,1.4-7.8,2.1-11.9,2.1
		c-10.6,0-16.5-5.1-16.5-16.5c0-9.9,5.6-17.2,15.6-17.2c9.7,0,14,6.4,14,14.4C-15.5,276.4-15.6,277.7-15.8,279.1 M-29.8,267
		c-3.6,0-6,2.5-6.5,6.4H-24C-23.9,269.4-26.2,267-29.8,267"/>
	<path class="st0" d="M24.5,293.9h-9.3l-4.8-14.4c-0.7-2.2-1.3-4.5-1.9-7.2H8.4c-0.7,3-1.4,5.5-2.3,8.1l-4.2,13.5h-8.9l-10.2-32.3
		h9.4l3.6,12.2c0.9,3.2,1.8,6.4,2.6,9.8h0.1c0.7-3.6,1.5-6.5,2.4-9.4l4-12.6h8.3l4.1,12.2c1.2,3.7,2,6.6,2.7,9.8h0.1
		c0.7-3.3,1.3-6.2,2.3-9.4l3.8-12.6H35L24.5,293.9z"/>
	<path class="st0" d="M54.2,278.4v15.5h-8.7v-15.5L31.4,250h9.5l6,12.6c1.2,2.6,2.2,5,3.1,7.3h0.1c0.9-2.5,2.3-5.3,3.6-8.1l5.7-11.8
		h9.3L54.2,278.4z"/>
	<path class="st0" d="M74.5,294.6c-9.5,0-15.6-4.8-15.6-16.3c0-10.1,6.9-17.4,17-17.4c9.5,0,15.6,5.1,15.6,16.2
		C91.6,287.3,84.5,294.6,74.5,294.6 M75.4,268c-3.8,0-7.6,2.9-7.6,9.5c0,6.6,2.5,10,7.4,10c4.2,0,7.4-3.3,7.4-9.9
		C82.7,271.3,80.4,268,75.4,268"/>
	<path class="st0" d="M111.8,269.1c-6.2-1.2-9.3,2.7-9.3,11.6v13.2H94v-32.3h8.1c0,1.6-0.2,4.2-0.6,6.5h0.1
		c1.6-4.1,4.8-7.7,10.6-7.2L111.8,269.1z"/>
	<polygon class="st0" points="133.1,293.9 122.8,277.9 122.8,293.9 114.2,293.9 114.2,248.3 122.8,245.8 122.8,275 132.5,261.6 
		143,261.6 131.3,276.3 143.8,293.9 	"/>
	<rect x="138.7" y="273.4" class="st0" width="15.8" height="5.7"/>
</g>
</svg>
