<?xml version="1.0" encoding="utf-8"?>
<!-- Generator: Adobe Illustrator 19.2.1, SVG Export Plug-In . SVG Version: 6.00 Build 0)  -->
<svg version="1.1" id="layer" xmlns="http://www.w3.org/2000/svg" xmlns:xlink="http://www.w3.org/1999/xlink" x="0px" y="0px"
	 viewBox="0 0 652 652" style="enable-background:new 0 0 652 652;" xml:space="preserve">
<style type="text/css">
	.st0{fill:#63599E;}
</style>
<g>
	<path class="st0" d="M183,285.6c0-3-0.8-4.2-4.2-4.6v-1.2h11v1.2c-3.4,0.4-4.2,1.6-4.2,4.6v26H184l-21.3-24.5v18
		c0,3,0.8,4.2,4.2,4.6v1.2h-11v-1.2c3.4-0.4,4.2-1.6,4.2-4.6v-21c-1.1-1.8-2.3-2.7-4.2-3.2v-1.2h8.4l18.6,21.4V285.6z"/>
	<path class="st0" d="M199.8,311.6c-6.1,0-10.3-5.3-10.3-12.6c0-7.3,4.2-12.6,10.3-12.6c6.2,0,10.4,5.3,10.4,12.6
		C210.2,306.3,206,311.6,199.8,311.6 M199.8,288.5c-3.3,0-4.6,3.2-4.6,10.5c0,7.4,1.3,10.5,4.6,10.5c3.3,0,4.6-3.2,4.6-10.5
		C204.4,291.6,203.1,288.5,199.8,288.5"/>
	<path class="st0" d="M212,311v-1.3c1.8-0.3,2.5-0.8,2.5-2.9v-13.9c0-2.5-0.5-3-2.5-3v-1.3c2.4-0.5,7.4-2,7.8-2
		c0.2,0,0.2,0.4,0.2,0.8v3.6h0.1c0.9-2,2.5-4.4,5.1-4.4c2.1,0,3.1,1.7,3.1,3.4c0,1.6-1,2.8-2.4,2.8c-1.3,0-1.8-0.7-2.2-1
		c-0.3-0.2-0.7-0.5-1.2-0.5c-0.9,0-1.7,0.9-2.4,2v13.3c0,2.5,1.2,3.1,3.3,3.2v1.3H212z"/>
	<path class="st0" d="M242.6,289.6h-5v15c0,1.9,0.5,3,1.6,3c1.2,0,1.9-0.9,3.2-2.2l0.9,1c-1.7,2.6-3.3,5.3-6.7,5.3
		c-3.3,0-4.6-2.1-4.6-5.9v-16h-2.8v-1.7c3.4-0.6,5.9-3.5,6.8-8.8h1.5v8h5V289.6z"/>
	<path class="st0" d="M252.5,306.5c0,2.7,0.4,3,2.7,3.2v1.3h-10.8v-1.3c2.3-0.2,2.6-0.5,2.6-3.2v-21.9c0-2.2-0.7-2.6-2.6-2.6v-1.3
		c2.6-0.4,7.6-2.1,7.8-2.1c0.3,0,0.3,0.2,0.3,0.6v10.6c2-1.7,4.4-3.2,6.6-3.2c4.6,0,6.7,2.5,6.7,7.9v12.1c0,2.7,0.3,3,2.6,3.2v1.3
		h-10.8v-1.3c2.3-0.2,2.7-0.5,2.7-3.2V294c0-3.3-1.2-4.1-2.7-4.1c-2.1,0-3.6,1-5,2V306.5z"/>
	<path class="st0" d="M276.6,311.6l-6.8-20.9c-0.5-1.7-1.4-2.2-2.1-2.3v-1.3h9.4v1.3c-1-0.1-1.9,0.2-1.9,1.1c0,0.5,0.2,1.1,0.5,2.3
		l3.5,11.3l3.7-9.4l-1-3.1c-0.5-1.4-1.1-2.1-2.7-2.3v-1.3h10.5v1.3c-1.4-0.1-2.3,0.7-2.3,1.6c0,0.7,0.3,1.5,0.7,2.8l2.8,9.8h0.1
		l3.4-9.8c0.4-1.3,0.5-2,0.5-2.7c0-1.1-0.6-1.8-1.9-1.7v-1.3h6.7v1.3c-1.1,0.5-2,1-2.8,3.5l-6.7,19.7h-1.5l-4.7-14.8l-5.8,14.8
		H276.6z"/>
	<path class="st0" d="M304.8,297.2c0,6.2,2.1,9.8,6.2,9.8c2.7,0,4.6-1.5,6.4-4.1l0.9,0.9c-1.6,3.6-4.1,7.7-9.3,7.7
		c-5.9,0-9.6-5.4-9.6-11.8c0-8,4-13.4,9.5-13.4c5.6,0,8.6,4.9,8.9,10.9H304.8z M312.2,295.2c0-2.9-0.7-6.5-3.7-6.5
		c-3.2,0-3.7,3.6-3.7,6.5H312.2z"/>
	<path class="st0" d="M320.8,302.8h1.2c0.9,3.2,3,6.7,6.8,6.7c1.7,0,3.2-0.9,3.2-3.1c0-2.2-1.4-3-3.5-4.3l-3.4-2.1
		c-2.1-1.3-4-2.7-4-7.1c0-3.5,2.5-6.6,6.8-6.6c3.3,0,3.8,1.3,5,1.3c0.8,0,0.9-0.5,1.1-1.2h1.2v8.1h-1.5c-0.9-3.3-2.7-6.2-6.2-6.2
		c-1.5,0-2.7,0.9-2.7,3.2c0,1.4,0.5,2.2,2.4,3.3l3.9,2.1c3.1,1.7,5,3.3,5,7.3c0,4.7-3.1,7.2-7.2,7.2c-1.6,0-2.7-0.2-3.6-0.5
		c-1.2-0.4-1.8-0.9-2.4-0.9c-0.5,0-0.8,0.6-0.9,1.3h-1.2V302.8z"/>
	<path class="st0" d="M351.2,289.6h-5v15c0,1.9,0.5,3,1.6,3c1.2,0,1.9-0.9,3.2-2.2l0.9,1c-1.7,2.6-3.3,5.3-6.7,5.3
		c-3.3,0-4.6-2.1-4.6-5.9v-16h-2.7v-1.7c3.4-0.6,5.9-3.5,6.8-8.8h1.5v8h5V289.6z"/>
	<path class="st0" d="M358.4,297.2c0,6.2,2.1,9.8,6.2,9.8c2.7,0,4.6-1.5,6.4-4.1l0.9,0.9c-1.6,3.6-4.1,7.7-9.3,7.7
		c-5.9,0-9.6-5.4-9.6-11.8c0-8,4-13.4,9.5-13.4c5.6,0,8.6,4.9,8.9,10.9H358.4z M365.8,295.2c0-2.9-0.7-6.5-3.7-6.5
		c-3.2,0-3.7,3.6-3.7,6.5H365.8z"/>
	<path class="st0" d="M373.4,311v-1.3c1.8-0.3,2.5-0.8,2.5-2.9v-13.9c0-2.5-0.5-3-2.5-3v-1.3c2.4-0.5,7.4-2,7.8-2
		c0.2,0,0.2,0.4,0.2,0.8v3.6h0.1c0.9-2,2.5-4.4,5.1-4.4c2.1,0,3.1,1.7,3.1,3.4c0,1.6-1,2.8-2.4,2.8c-1.3,0-1.8-0.7-2.2-1
		c-0.3-0.2-0.7-0.5-1.2-0.5c-0.9,0-1.7,0.9-2.4,2v13.3c0,2.5,1.2,3.1,3.3,3.2v1.3H373.4z"/>
	<path class="st0" d="M404.7,311v-1.3c2.3-0.2,2.6-0.5,2.6-3.2V294c0-3.3-1.2-4.1-2.7-4.1c-2.1,0-3.6,1-4.9,2v14.5
		c0,2.7,0.3,3,2.6,3.2v1.3h-10.8v-1.3c2.3-0.2,2.6-0.5,2.6-3.2v-13.9c0-2.5-0.6-3-2.6-3v-1.3c1.2-0.3,7.5-1.8,7.8-1.8
		c0.2,0,0.3,0.3,0.3,0.5v2.6c2-1.7,4.4-3.2,6.6-3.2c4.6,0,6.6,2.5,6.6,7.9v12.1c0,2.7,0.4,3,2.7,3.2v1.3H404.7z"/>
	<path class="st0" d="M457.5,279.8h10.7v1.2c-3,0.2-3.9,0.5-3.9,3.8V306c0,3.3,0.9,3.6,3.9,3.8v1.2h-14v-1.2
		c3.1-0.2,3.9-0.5,3.9-3.8v-21.9h-0.1l-10.4,27.2h-1.4l-10.2-27.2H436v21c0,3,0.9,4.2,4.2,4.6v1.2h-11v-1.2c3.4-0.4,4.2-1.6,4.2-4.6
		V284c0-2.1-0.9-3-4.2-3v-1.2h11.3l8.3,21.6L457.5,279.8z"/>
	<path class="st0" d="M474.2,297.2c0,6.2,2.1,9.8,6.2,9.8c2.8,0,4.6-1.5,6.4-4.1l0.9,0.9c-1.6,3.6-4.1,7.7-9.3,7.7
		c-5.9,0-9.6-5.4-9.6-11.8c0-8,4-13.4,9.5-13.4c5.6,0,8.6,4.9,8.9,10.9H474.2z M481.6,295.2c0-2.9-0.7-6.5-3.7-6.5
		c-3.2,0-3.7,3.6-3.7,6.5H481.6z"/>
	<path class="st0" d="M501.7,311v-1.3c2.3-0.2,2.6-0.5,2.6-3.2V294c0-3.3-1.2-4.1-2.7-4.1c-2.2,0-3.6,0.8-4.7,1.9v14.6
		c0,2.7,0.4,3.1,2.7,3.2v1.3h-11v-1.3c2.5-0.2,2.8-0.5,2.8-3.2v-13.7c0-2.5-0.5-3-2.8-3v-1.3c1.8-0.3,7.7-1.9,8-1.9
		c0.3,0,0.3,0.4,0.3,0.6v2.4c1.9-1.6,4.1-3.1,6.7-3.1c2.7,0,4.1,1.6,5.6,3.6c2.4-2.1,4.1-3.6,6.9-3.6c4.6,0,6.7,2.5,6.7,7.9v12.1
		c0,2.7,0.3,3,2.6,3.2v1.3h-10.8v-1.3c2.3-0.2,2.6-0.5,2.6-3.2V294c0-3.3-1.2-4.1-2.7-4.1c-2.1,0-3.5,0.8-4.7,1.9v14.6
		c0,2.7,0.3,3.1,2.6,3.2v1.3H501.7z"/>
	<path class="st0" d="M536.8,311.6c-6.1,0-10.3-5.3-10.3-12.6c0-7.3,4.2-12.6,10.3-12.6c6.2,0,10.4,5.3,10.4,12.6
		C547.2,306.3,543,311.6,536.8,311.6 M536.8,288.5c-3.3,0-4.6,3.2-4.6,10.5c0,7.4,1.3,10.5,4.6,10.5c3.3,0,4.6-3.2,4.6-10.5
		C541.4,291.6,540.1,288.5,536.8,288.5"/>
	<path class="st0" d="M548.9,311v-1.3c1.8-0.3,2.5-0.8,2.5-2.9v-13.9c0-2.5-0.5-3-2.5-3v-1.3c2.4-0.5,7.4-2,7.8-2
		c0.2,0,0.2,0.4,0.2,0.8v3.6h0.1c0.9-2,2.5-4.4,5.1-4.4c2.1,0,3.1,1.7,3.1,3.4c0,1.6-1,2.8-2.4,2.8c-1.3,0-1.8-0.7-2.2-1
		c-0.3-0.2-0.7-0.5-1.2-0.5c-0.9,0-1.7,0.9-2.4,2v13.3c0,2.5,1.2,3.1,3.3,3.2v1.3H548.9z"/>
	<path class="st0" d="M566.8,311v-1.3c2.4-0.2,2.8-1.1,2.8-3.3v-12.7c0-3.4-0.8-4-2.8-4v-1.3c2.6-0.2,7.5-1.9,7.9-1.9
		c0.4,0,0.4,0.4,0.4,0.9v19c0,2.1,0.8,3.3,2.7,3.3v1.3H566.8z M569.1,279.8c0-2,1.5-3.6,3.2-3.6c1.7,0,3.2,1.6,3.2,3.6
		c0,1.9-1.5,3.6-3.2,3.6C570.6,283.4,569.1,281.7,569.1,279.8"/>
	<path class="st0" d="M597.9,307.1c0,0.7,0.3,1.1,0.8,1.1c0.5,0,1-0.5,1.4-0.8l0.7,0.9c-1.1,2-3.1,3.3-5.3,3.3
		c-2.7,0-3.1-1.8-3.1-3.6c-2.2,2-4.3,3.6-7.4,3.6c-3.2,0-5.7-1.5-5.7-6.2c0-7.2,9-8.3,13.2-9.8c0-6.1-1-7.1-3.8-7.1
		c-2.4,0-2.8,1.2-2.8,3.5c0,1.8-1.1,2.6-2.4,2.6c-1.3,0-2.4-0.8-2.4-2.6c0-3.8,4.3-5.5,8.4-5.5c4.6,0,8.6,2,8.6,7.7V307.1z
		 M592.4,297.9c-3.7,1.1-7.7,2.6-7.7,6.4c0,2.1,1.3,3.7,3.3,3.7c1.6,0,3.3-1.2,4.4-2.5V297.9z"/>
	<path class="st0" d="M601.4,311v-1.3c2.5-0.2,2.8-1,2.8-4.3v-20.2c0-2.5-0.6-3.1-2.8-3.1v-1.3c1.4-0.3,7.7-2.1,8-2.1
		c0.2,0,0.3,0.3,0.3,0.5v26.3c0,3.3,0.3,4.1,2.8,4.3v1.3H601.4z"/>
	<path class="st0" d="M67.3,279.8h3.2c1.2,0,1.2,0.7,1.5,1.4c1.2,2.6,4.1,10.2,4.1,10.2l15.1,39.2c0,0,0.5,0.9,0.6,1.2
		c0.2,0.5,0.6,0.4,0.8,0c0.2-0.6,0.6-1.3,0.6-1.3l19.9-46.6c0,0,0.3-1,1.1-2.9c0.3-0.7,1.2-1.3,2.3-1.3h21.2v3H136
		c0,0-3-0.4-4.9,1.9c-1,1.1-0.9,3.4-0.9,3.4l0,54.5l0.3,4.8c0.3,2.2,1.1,3.7,2.3,4.3c2.1,1,5.1,0.8,5.1,0.8v2.6h-28.9v-2.6
		c0,0,2.4,0.3,4.9-0.8c1.4-0.6,2.2-2.3,2.4-4.3l0.3-4.8l0-42.7c0,0,0-1.6,0-3c0-0.9,0-1.5,0-1.8c-0.1-0.6-1.3-0.9-1.8-0.1
		c-0.3,0.5-2.1,4.6-2.1,4.6l-19.7,46.7c0,0-2.4,6.4-3.6,8.8c-0.5,1-0.6,0.9-0.9,0.9c-0.1,0-0.6,0.1-1.1-0.9c-1.4-3-3.7-8.7-3.7-8.7
		s-24.2-58.7-24.5-59.5c-0.2-0.6-0.9-2.3-2.1-3.1c-1.3-0.8-5-0.8-5-0.8v-3H67.3z"/>
	<path class="st0" d="M20.7,279.8h23.6c0.2,0,0.9,0.2,1.2,1c3.7,9.3,26.3,65.7,26.3,65.7s1,2.4,1.9,3.9c0.4,0.7,1.3,1.2,1.7,1.4
		c1.4,0.7,3.3,0.6,3.3,0.6v2.6l-15.4,0c0,0-2.3,0.2-2.8-0.2c-0.6-0.6-1.3-2.6-1.3-2.6l-22.9-55.5c0,0-1.4-4.1-2.2-4.4
		c-0.2-0.1-0.8,0-0.9,0.3c-0.5,0.5-0.3,3.6-0.3,3.6v51.1c0.2,2.1,1.8,3.4,1.8,3.4c1.6,1.7,5.2,1.5,5.2,1.5l0,2.7l-19,0v-2.6
		c0,0,3.3,0.4,5.1-1.6c0.3-0.3,1.3-0.8,1.6-3.4V288c0,0,0-2.8-2.5-4.5c-1.3-0.9-4.5-0.8-4.5-0.8V279.8z"/>
	<path class="st0" d="M166,340.4v9.6c0,3.3,0.9,3.6,3.9,3.8v1.2h-13.9v-1.2c3-0.2,3.9-0.5,3.9-3.8v-21.3c0-3.3-0.9-3.6-3.9-3.8v-1.2
		h13.9v1.2c-3,0.2-3.9,0.5-3.9,3.8v9.1h13.6v-9.1c0-3.3-0.9-3.6-3.8-3.8v-1.2h13.9v1.2c-2.9,0.2-3.8,0.5-3.8,3.8V350
		c0,3.3,0.9,3.6,3.8,3.8v1.2h-13.9v-1.2c3-0.2,3.8-0.5,3.8-3.8v-9.6H166z"/>
	<path class="st0" d="M204.6,343c0,7.4-1.3,10.5-4.6,10.5c-3.3,0-4.6-3.1-4.6-10.5c0-7.4,1.3-10.5,4.6-10.5
		C203.3,332.5,204.6,335.7,204.6,343 M210.4,343c0-7.3-4.2-12.5-10.4-12.5c-6.1,0-10.3,5.3-10.3,12.5c0,7.3,4.2,12.5,10.3,12.5
		C206.2,355.6,210.4,350.3,210.4,343"/>
	<path class="st0" d="M212.2,346.8h1.2c0.9,3.1,3,6.7,6.8,6.7c1.7,0,3.2-0.9,3.2-3c0-2.2-1.4-3-3.5-4.3l-3.4-2.1
		c-2.1-1.3-4-2.7-4-7.1c0-3.5,2.5-6.6,6.8-6.6c3.3,0,3.8,1.3,5,1.3c0.8,0,0.9-0.5,1.1-1.2h1.2v8.1h-1.5c-0.9-3.2-2.7-6.2-6.2-6.2
		c-1.5,0-2.7,0.9-2.7,3.1c0,1.4,0.5,2.2,2.4,3.3l3.9,2.1c3.1,1.7,5,3.3,5,7.3c0,4.7-3.1,7.2-7.2,7.2c-1.6,0-2.7-0.2-3.6-0.5
		c-1.2-0.4-1.8-0.9-2.4-0.9c-0.5,0-0.8,0.6-0.9,1.3h-1.2V346.8z"/>
	<path class="st0" d="M236.8,336.5c0.8-0.9,2-2.2,3.8-2.2c2.8,0,5.2,2.9,5.2,9.6c0,7.3-2,9.7-4.8,9.7c-2.8,0-4.3-2.1-4.3-8.2V336.5z
		 M236.8,353.6c1.2,1,2.4,1.9,4.9,1.9c5.2,0,9.6-6.5,9.6-14c0-6.3-3.6-11.1-7.9-11.1c-2.6,0-4.8,1.8-6.6,3.7V331
		c0-0.3-0.1-0.5-0.3-0.5c-0.3,0-6.6,1.6-8,1.8v1.3c2.2,0,2.8,0.5,2.8,2.9v24.3c0,2.7-0.3,3-2.8,3.1v1.3h12V364
		c-3.4-0.2-3.7-0.5-3.7-3.1V353.6z"/>
	<path class="st0" d="M253.2,355v-1.3c2.4-0.2,2.8-1.1,2.8-3.3v-12.7c0-3.4-0.8-4-2.8-4v-1.3c2.6-0.2,7.5-1.9,7.9-1.9
		c0.4,0,0.4,0.4,0.4,0.9v19c0,2.1,0.8,3.3,2.7,3.3v1.3H253.2z M255.5,323.8c0-2,1.5-3.6,3.2-3.6s3.2,1.6,3.2,3.6
		c0,1.9-1.5,3.6-3.2,3.6S255.5,325.7,255.5,323.8"/>
	<path class="st0" d="M278.3,333.6h-5v15c0,1.9,0.5,3,1.6,3c1.2,0,1.9-0.9,3.2-2.2l0.9,1c-1.7,2.6-3.3,5.3-6.7,5.3
		c-3.3,0-4.6-2.1-4.6-5.9v-16.1H265v-1.7c3.4-0.6,5.9-3.5,6.8-8.8h1.5v8h5V333.6z"/>
	<path class="st0" d="M293.6,349.4c-1.1,1.3-2.8,2.5-4.4,2.5c-2,0-3.3-1.5-3.3-3.7c0-3.8,4-5.3,7.7-6.4V349.4z M299.1,338.2
		c0-5.7-4-7.7-8.6-7.7c-4.1,0-8.4,1.7-8.4,5.5c0,1.8,1.1,2.6,2.4,2.6s2.4-0.8,2.4-2.6c0-2.2,0.4-3.5,2.8-3.5c2.8,0,3.8,1.1,3.8,7.1
		c-4.2,1.4-13.2,2.6-13.2,9.8c0,4.7,2.5,6.2,5.7,6.2c3.2,0,5.2-1.5,7.4-3.5c0,1.7,0.4,3.5,3.1,3.5c2.2,0,4.2-1.3,5.3-3.2l-0.7-0.9
		c-0.4,0.3-0.9,0.8-1.4,0.8c-0.5,0-0.8-0.5-0.8-1.1V338.2z"/>
	<path class="st0" d="M302.8,355v-1.3c2.5-0.2,2.8-1,2.8-4.3v-20.3c0-2.5-0.6-3.1-2.8-3.1v-1.3c1.4-0.3,7.7-2.1,8-2.1
		c0.2,0,0.3,0.3,0.3,0.5v26.3c0,3.3,0.3,4.1,2.8,4.3v1.3H302.8z"/>
	<path class="st0" d="M612.4,280.4c0-2.3,1.9-4.2,4.2-4.2s4.2,1.9,4.2,4.2c0,2.3-1.9,4.2-4.2,4.2S612.4,282.7,612.4,280.4
		 M613,280.4c0,2,1.6,3.5,3.5,3.5c1.9,0,3.5-1.5,3.5-3.5c0-2-1.6-3.5-3.5-3.5C614.6,276.9,613,278.4,613,280.4 M618.5,282.8h-0.8
		l-1.2-2.2h-0.9v2.2h-0.7v-4.7h2c0.9,0,1.6,0.3,1.6,1.2c0,0.9-0.6,1.3-1.3,1.3L618.5,282.8z M615.6,278.7v1.2h0.7
		c0.6,0,1.5,0.1,1.5-0.5c0-0.6-0.5-0.6-1.1-0.6H615.6z"/>
</g>
</svg>
